<?xml version="1.0" standalone="no"?>
<!DOCTYPE svg PUBLIC "-//W3C//DTD SVG 20010904//EN"
 "http://www.w3.org/TR/2001/REC-SVG-20010904/DTD/svg10.dtd">
<svg version="1.0" xmlns="http://www.w3.org/2000/svg"
 width="1024.000000pt" height="1024.000000pt" viewBox="0 0 1024.000000 1024.000000"
 preserveAspectRatio="xMidYMid meet">
<metadata>
Created by potrace 1.11, written by Peter Selinger 2001-2013
</metadata>
<g transform="translate(0.000000,1024.000000) scale(0.100000,-0.100000)"
fill="#000000" stroke="none">
<path d="M4829 10116 c-2 -2 -49 -7 -104 -10 -55 -4 -111 -8 -125 -11 -14 -2
-47 -7 -75 -9 -52 -6 -95 -11 -158 -22 -20 -3 -47 -7 -60 -8 -12 -2 -35 -6
-52 -9 -16 -4 -46 -9 -65 -12 -280 -46 -705 -174 -1020 -308 -14 -6 -27 -11
-30 -12 -31 -8 -354 -168 -458 -227 -153 -86 -351 -212 -438 -277 -12 -9 -32
-23 -44 -31 -37 -25 -153 -112 -186 -139 -17 -14 -51 -42 -75 -61 -131 -104
-388 -349 -515 -491 -119 -132 -132 -148 -190 -220 -32 -41 -62 -76 -65 -79
-4 -3 -17 -21 -30 -40 -13 -19 -43 -61 -67 -92 -105 -142 -256 -381 -344 -543
-53 -98 -188 -372 -188 -381 0 -3 -11 -29 -24 -58 -108 -236 -269 -764 -310
-1016 -3 -19 -8 -45 -10 -56 -6 -28 -13 -77 -22 -139 -3 -27 -8 -58 -9 -67 -2
-9 -7 -48 -10 -85 -4 -37 -9 -77 -11 -88 -26 -139 -25 -836 1 -1030 2 -16 7
-52 10 -80 4 -27 9 -63 11 -80 2 -16 7 -48 9 -70 3 -22 15 -89 26 -150 12 -60
22 -119 24 -130 2 -11 6 -29 8 -40 3 -11 15 -60 27 -110 108 -461 330 -997
583 -1410 30 -49 210 -320 228 -344 131 -171 171 -221 243 -306 88 -103 127
-145 266 -285 463 -465 955 -799 1585 -1075 268 -118 682 -245 970 -299 121
-23 292 -50 380 -61 28 -3 64 -8 82 -10 144 -20 729 -27 933 -12 1032 78 2047
503 2855 1196 115 98 410 388 473 464 23 29 57 68 75 88 63 71 82 95 176 219
352 464 629 1007 796 1556 61 202 99 362 150 634 3 16 24 157 30 205 2 17 7
59 10 95 3 36 10 101 15 145 8 83 6 751 -3 795 -3 14 -8 61 -12 104 -4 43 -8
86 -10 95 -1 9 -6 39 -9 66 -4 28 -11 75 -16 105 -5 30 -11 71 -14 90 -15 97
-71 347 -97 435 -11 39 -21 75 -23 80 -81 303 -268 757 -426 1030 -27 48 -50
90 -50 92 0 6 -130 212 -189 298 -273 403 -637 797 -1016 1100 -27 22 -52 42
-55 45 -8 9 -179 132 -265 191 -367 252 -802 466 -1240 610 -130 43 -356 107
-435 123 -122 26 -221 45 -250 50 -19 3 -48 8 -65 11 -54 9 -89 14 -140 20
-27 4 -61 8 -74 10 -14 3 -54 7 -90 11 -36 3 -82 8 -101 11 -41 5 -696 14
-701 9z"/>
</g>
</svg>
